M48
;Layer_Color=9474304
;FILE_FORMAT=4:4
METRIC,LZ
;TYPE=PLATED
T01F00S00C0.9000
T03F00S00C1.0000
%
T01
X0070739Y0110236
X0073279
T03
X0092837Y0067183
Y0069723
Y0072263
Y0074803
Y0077343
X007874
Y0074803
Y0072263
Y0069723
Y0067183
Y0079883
Y0082423
Y0084963
Y0087503
Y0090043
Y0092583
Y0095123
Y0097663
Y0100203
Y0102743
X0092837
Y0100203
Y0097663
Y0095123
Y0092583
Y0090043
Y0087503
Y0084963
Y0082423
Y0079883
M30
